<?xml version="1.0" standalone="no"?>
<!DOCTYPE svg PUBLIC "-//W3C//DTD SVG 20010904//EN"
 "http://www.w3.org/TR/2001/REC-SVG-20010904/DTD/svg10.dtd">
<svg version="1.0" xmlns="http://www.w3.org/2000/svg"
 width="926.000000pt" height="926.000000pt" viewBox="0 0 926.000000 926.000000"
 preserveAspectRatio="xMidYMid meet">
<metadata>
Created by potrace 1.11, written by Peter Selinger 2001-2013
</metadata>
<g transform="translate(0.000000,926.000000) scale(0.100000,-0.100000)"
fill="#000000" stroke="none">
<path d="M5269 6561 c-3 -18 -4 -3808 -1 -3818 3 -10 324 -13 1561 -13 l1556
0 264 618 c146 339 275 640 287 667 38 85 164 384 164 390 0 7 -732 829 -742
833 -14 6 -9 22 7 22 8 0 15 4 15 9 0 8 177 155 192 160 4 1 20 14 36 29 15
15 43 38 61 52 18 14 48 39 68 57 20 17 42 29 47 26 6 -3 8 -3 4 2 -8 9 80 82
94 77 5 -1 7 1 4 6 -3 5 18 26 47 48 29 21 54 42 55 47 2 4 7 7 11 7 4 0 28
19 52 42 24 22 39 38 33 35 -14 -8 -47 26 -37 38 5 4 3 5 -3 2 -14 -8 -57 36
-47 48 5 4 3 5 -3 2 -13 -7 -45 28 -36 39 4 4 2 4 -4 1 -14 -8 -57 36 -47 48
5 4 3 5 -3 2 -12 -7 -60 42 -56 56 1 5 -1 6 -6 3 -12 -7 -54 38 -45 49 5 4 3
5 -3 2 -12 -7 -57 35 -49 46 3 4 2 5 -2 2 -10 -8 -63 47 -56 58 3 6 1 7 -4 4
-10 -6 -41 20 -42 36 -1 4 -3 6 -5 5 -9 -6 -45 35 -39 45 3 5 2 7 -4 4 -13 -8
-76 57 -66 68 5 4 3 5 -3 2 -10 -6 -52 30 -46 39 1 2 0 3 -2 2 -9 -6 -45 36
-39 46 3 6 2 8 -2 3 -5 -4 -23 6 -40 23 l-31 30 -1547 3 c-851 2 -1547 1
-1548 -2z"/>
<path d="M95 5601 l0 -959 638 -318 c350 -175 637 -322 637 -325 0 -6 -158
-48 -200 -54 -8 -1 -22 -5 -30 -8 -16 -7 -120 -33 -160 -41 -14 -3 -85 -21
-159 -40 -74 -19 -138 -33 -142 -30 -4 2 -11 -1 -14 -7 -4 -5 -13 -8 -21 -5
-7 3 -16 1 -19 -4 -4 -7 -55 -20 -100 -26 -5 0 -17 -4 -25 -7 -17 -7 -121 -33
-165 -42 -16 -3 -75 -18 -130 -33 l-100 -27 -3 -468 c-2 -440 -1 -467 15 -468
117 -4 3796 1 3800 5 3 3 6 433 7 955 l1 950 -637 318 c-351 175 -638 321
-638 324 0 9 209 61 220 54 4 -3 10 -1 12 4 1 5 17 12 33 15 17 3 119 28 228
56 109 28 202 48 207 45 4 -3 10 -1 12 4 3 9 52 22 96 25 12 0 22 4 22 7 0 5
89 29 130 34 8 1 22 5 30 8 34 14 134 36 141 31 4 -2 10 0 13 5 3 5 34 14 68
21 l63 13 -2 451 c-1 248 -2 461 -2 474 l-1 22 -1912 0 -1913 0 0 -959z"/>
</g>
</svg>
